<svg xmlns="http://www.w3.org/2000/svg" viewBox="0 0 52 65" x="0px" y="0px"><title>Node outline</title><g><rect x="22.82" y="12.73" width="6.53" height="0.12"/><path d="M18.3,35.08l8.87,1.7a.53.53,0,0,0,0,.12l-8.87-1.71A.45.45,0,0,0,18.3,35.08Z"/><path d="M22.24,27.78l-4.63,5.28L17.52,33l4.63-5.3Z"/><path d="M21.14,15l2.08,8.88a.27.27,0,0,0-.12,0L21,15A.23.23,0,0,0,21.14,15Z"/><path d="M35.25,23.31l-.11,0-2.87-8.41.11,0Z"/><path d="M22.34,14.18,34.22,24l-.08.09-11.87-9.8Z"/><path d="M34.77,27.38a.6.6,0,0,0,.11.06l-4.39,7.88-.1,0Z"/><path d="M33.86,26.35a1.17,1.17,0,0,0,0,.11L18.14,33.82a.37.37,0,0,0-.05-.11Z"/><path d="M33.67,25.5a.49.49,0,0,0,0,.12L25.92,26a.49.49,0,0,0,0-.12Z"/><path d="M25.91,25.87a2.25,2.25,0,0,0-2.24-2.08,2.22,2.22,0,0,0-.45.05.27.27,0,0,0-.12,0,2.24,2.24,0,0,0-1,3.82l.09.09A2.25,2.25,0,0,0,25.92,26V26A.49.49,0,0,0,25.91,25.87Z"/><path d="M31.6,10.54a2.25,2.25,0,0,0-2.25,2.19v.12A2.25,2.25,0,0,0,31.6,15a2.47,2.47,0,0,0,.67-.1l.11,0a2.25,2.25,0,0,0-.78-4.36Z"/><path d="M30.49,35.32l-.1,0a2.14,2.14,0,0,0-1-.26,2.23,2.23,0,0,0-2.18,1.77.53.53,0,0,0,0,.12,2.19,2.19,0,0,0,0,.36,2.25,2.25,0,1,0,3.38-1.94Z"/><path d="M35.92,23.21a2.47,2.47,0,0,0-.67.1l-.11,0a2.2,2.2,0,0,0-.92.63l-.08.09a2.28,2.28,0,0,0-.47,1.38v.05a.49.49,0,0,0,0,.12,2.18,2.18,0,0,0,.18.73,1.17,1.17,0,0,0,0,.11,2.24,2.24,0,0,0,.86.92.6.6,0,0,0,.11.06,2.14,2.14,0,0,0,1,.26,2.25,2.25,0,0,0,0-4.49Z"/><path d="M18.14,33.82a.37.37,0,0,0-.05-.11,2.33,2.33,0,0,0-.48-.65L17.52,33a2.19,2.19,0,0,0-1.44-.52,2.25,2.25,0,1,0,2.19,2.72.45.45,0,0,0,0-.11,2.22,2.22,0,0,0,0-.37A2.18,2.18,0,0,0,18.14,33.82Z"/><path d="M20.58,10.54a2.25,2.25,0,0,0,0,4.5A2.14,2.14,0,0,0,21,15a.23.23,0,0,0,.11,0,2.22,2.22,0,0,0,1.13-.69l.07-.09a2.22,2.22,0,0,0,.48-1.33v-.12A2.25,2.25,0,0,0,20.58,10.54Z"/></g><text x="0" y="67" fill="#000000" font-size="5px" font-weight="bold" font-family="'Helvetica Neue', Helvetica, Arial-Unicode, Arial, Sans-serif">Created by Palukx</text><text x="0" y="72" fill="#000000" font-size="5px" font-weight="bold" font-family="'Helvetica Neue', Helvetica, Arial-Unicode, Arial, Sans-serif">from the Noun Project</text></svg>